<svg height="511pt" viewBox="-39 1 511 511.99963" width="511pt" xmlns="http://www.w3.org/2000/svg"><path d="m197.753906 214.714844h40.171875c7.234375 0 13.121094 5.882812 13.121094 13.117187s-5.886719 13.121094-13.121094 13.121094h-52.222656c-8.285156 0-15.003906 6.714844-15.003906 15.003906 0 8.285157 6.71875 15 15.003906 15h17.136719v17.136719c0 8.285156 6.714844 15.003906 15 15.003906s15.003906-6.71875 15.003906-15.003906v-17.136719h5.082031c23.78125 0 43.125-19.34375 43.125-43.125 0-23.777343-19.34375-43.125-43.125-43.125h-40.171875c-7.234375 0-13.117187-5.882812-13.117187-13.117187s5.882812-13.121094 13.117187-13.121094h52.226563c8.285156 0 15-6.714844 15-15s-6.714844-15.003906-15-15.003906h-17.136719v-17.136719c0-8.285156-6.71875-15-15.003906-15s-15 6.714844-15 15v17.136719h-5.085938c-23.777344 0-43.125 19.347656-43.125 43.125s19.347656 43.125 43.125 43.125zm0 0"/><path d="m423.535156 433.816406-89.550781-102.34375 14.992187-14.992187c72.28125-72.277344 72.300782-189.871094.066407-262.179688-.027344-.027343-.054688-.050781-.078125-.078125-72.28125-72.277344-189.878906-72.296875-262.183594-.0625-.027344.027344-.050781.050782-.078125.078125-72.300781 72.300781-72.300781 189.941407 0 262.242188l14.992187 14.992187-89.546874 102.339844c-12.15234425 13.890625-15.074219 33.71875-7.449219 50.523438 7.625 16.804687 24.476562 27.664062 42.925781 27.664062h340.429688c18.453124 0 35.304687-10.859375 42.929687-27.664062 7.625-16.800782 4.699219-36.632813-7.449219-50.519532zm-315.675781-358.300781.078125-.078125c60.585938-60.585938 159.15625-60.601562 219.765625-.042969.019531.019531.039063.039063.058594.058594 60.601562 60.601563 60.601562 159.207031 0 219.8125l-109.917969 109.917969-109.921875-109.917969c-60.578125-60.582031-60.597656-159.144531-.0625-219.75zm295.804687 396.421875c-2.773437 6.109375-8.898437 10.058594-15.609374 10.058594h-340.429688c-6.707031 0-12.832031-3.949219-15.605469-10.054688-2.769531-6.109375-1.707031-13.320312 2.710938-18.367187l88.230469-100.835938 84.269531 84.269531c2.929687 2.929688 6.769531 4.398438 10.609375 4.398438s7.679687-1.464844 10.609375-4.398438l84.269531-84.269531 88.230469 100.835938c4.421875 5.046875 5.484375 12.257812 2.714843 18.363281zm0 0"/></svg>