<svg width="54" height="42" viewBox="0 0 54 42" fill="none" xmlns="http://www.w3.org/2000/svg">
<path d="M26.9725 41.9288C19.45 41.9288 11.9274 41.9288 4.40489 41.9288C3.37976 41.9288 2.40747 41.7597 1.58102 41.1045C0.65101 40.3689 0.131047 39.4157 0.044387 38.2236C0.006341 37.6888 0 37.1541 0 36.6193C0 27.7609 0 18.9025 0 10.0442C0 9.186 0.105683 8.34476 0.566463 7.59018C1.27877 6.42344 2.32081 5.77877 3.67567 5.64138C3.93776 5.6139 4.20197 5.59488 4.46407 5.59065C4.60357 5.58854 4.64373 5.54204 4.6395 5.40676C4.63105 5.09183 4.62682 4.77478 4.63739 4.45984C4.65853 3.71794 5.20808 3.10709 5.94575 3.00352C6.11062 2.98027 6.2776 2.97182 6.44458 2.9697C8.22006 2.96759 9.99554 2.96759 11.7689 2.96759C12.6566 2.96759 13.3119 3.4178 13.4767 4.16181C13.5634 4.55707 13.5359 4.96712 13.5254 5.36872C13.519 5.55261 13.5761 5.58854 13.7431 5.58854C15.1846 5.5822 16.6261 5.58431 18.0655 5.58854C18.2093 5.58854 18.2769 5.53992 18.3488 5.41733C19.264 3.87858 20.1876 2.34617 21.105 0.811649C21.4516 0.247299 21.9504 0 22.6036 0.00211367C25.5204 0.006341 28.4394 0.006341 31.3563 0C32.0601 0 32.5864 0.264209 32.9479 0.8814C33.7574 2.26797 34.5796 3.64608 35.3976 5.0263C35.4737 5.15524 35.5625 5.27572 35.6301 5.40888C35.7041 5.55261 35.8034 5.59488 35.9662 5.59488C40.4831 5.59065 45 5.59065 49.5169 5.59065C50.4342 5.59065 51.3262 5.7217 52.1125 6.23321C53.2285 6.95608 53.8542 7.98333 53.9556 9.32128C53.9937 9.82222 54 10.321 54 10.822C54 19.6635 54 28.5028 53.9958 37.3443C53.9958 38.0376 53.981 38.7351 53.7062 39.3903C52.996 41.0834 51.6834 41.9098 49.8783 41.9246C47.0756 41.95 44.2729 41.931 41.4681 41.931C36.6341 41.931 31.8023 41.931 26.9683 41.931L26.9725 41.9288ZM26.9767 34.958C33.0472 35.0488 37.9742 30.0944 38.2024 24.2269C38.4455 17.9133 33.4256 12.663 27.2008 12.5721C20.8577 12.4791 16.085 17.4843 15.8145 23.1489C15.4826 30.1029 21.105 35.0594 26.9767 34.958ZM45.1353 13.705C45.1353 13.705 45.1353 13.7029 45.1353 13.7008C45.9955 13.7008 46.8558 13.7177 47.7161 13.6966C48.3713 13.6797 48.9166 13.2464 49.0942 12.6588C49.4091 11.6209 48.6926 10.6106 47.5914 10.5958C45.9681 10.5747 44.3427 10.5789 42.7194 10.5958C41.8358 10.6043 41.1426 11.3018 41.1404 12.1388C41.1404 13.016 41.802 13.6881 42.713 13.705C43.5204 13.7198 44.3279 13.7093 45.1353 13.7093V13.705Z" fill="black"/>
</svg>
