<svg width="18" height="18" viewBox="0 0 18 18" fill="none" xmlns="http://www.w3.org/2000/svg">
<path d="M9.03358 18C10.6402 17.9796 12.1559 17.5721 13.5546 16.7439C13.7359 16.6368 13.9191 16.6217 14.1042 16.6988C14.9124 17.0386 15.7305 17.3543 16.5437 17.6821C16.7741 17.7751 17.0031 17.871 17.2364 17.9563C17.5915 18.0853 17.9333 17.8788 17.9946 17.5059C18.0108 17.4065 17.9889 17.3127 17.9537 17.2225C17.7444 16.6925 17.5351 16.1624 17.323 15.6337C17.0877 15.048 16.8502 14.4629 16.612 13.8786C16.5944 13.8349 16.5994 13.8018 16.6226 13.7644C16.8002 13.4719 16.97 13.1744 17.1208 12.8671C17.2955 12.5125 17.4344 12.1432 17.5549 11.7668C17.8015 10.9971 17.9473 10.2097 17.9889 9.40123C18.0312 8.58216 17.9502 7.77719 17.767 6.97927C17.4534 5.61464 16.8354 4.40084 15.9588 3.31392C15.5974 2.86562 15.202 2.44975 14.7539 2.08814C14.0239 1.49887 13.2333 1.00828 12.3581 0.659362C11.695 0.394329 11.0115 0.204717 10.3062 0.099691C9.64451 0.00171328 8.97862 -0.0285964 8.30921 0.0292034C7.13809 0.130001 6.02545 0.438031 4.97412 0.959639C4.08557 1.40089 3.29989 1.98735 2.60229 2.69293C1.95683 3.34564 1.43046 4.08365 1.00274 4.89425C0.591231 5.67385 0.326989 6.50348 0.159283 7.36625C0.0451305 7.9513 -0.00983113 8.54198 0.00144319 9.13831C0.019764 10.1117 0.204381 11.0542 0.514425 11.9761C0.750481 12.6775 1.09223 13.3246 1.49318 13.942C1.84409 14.482 2.25701 14.9719 2.71715 15.4216C3.93125 16.6086 5.37013 17.3875 7.02323 17.7674C7.67855 17.9182 8.34303 18 9.03288 17.9993L9.03358 18ZM16.4063 16.419C16.3548 16.3978 16.3126 16.3795 16.2696 16.3626C15.5368 16.0701 14.8011 15.7832 14.0718 15.4822C13.8174 15.3772 13.5933 15.3898 13.3679 15.5442C13.1699 15.6796 12.9641 15.8029 12.7541 15.9192C11.8141 16.4408 10.81 16.7474 9.73964 16.8377C9.11603 16.8905 8.49524 16.8743 7.87303 16.7918C7.07819 16.6868 6.32704 16.4465 5.60619 16.1088C4.44775 15.5668 3.50282 14.7555 2.72137 13.7531C2.04985 12.8918 1.60733 11.9169 1.34943 10.8575C1.1324 9.96724 1.07462 9.06571 1.16481 8.15501C1.25994 7.19497 1.54884 6.2892 1.97797 5.42996C2.53887 4.30568 3.35273 3.38934 4.35615 2.64288C5.35252 1.90206 6.47079 1.44177 7.69546 1.23525C8.54667 1.09145 9.39789 1.09357 10.2491 1.22115C11.2307 1.36776 12.1439 1.71386 12.9965 2.21291C13.9844 2.79091 14.7912 3.56979 15.4607 4.49388C15.9398 5.15435 16.2661 5.89095 16.5233 6.65926C16.7086 7.214 16.8002 7.78777 16.8481 8.36999C16.9291 9.36457 16.834 10.3408 16.5402 11.2938C16.314 12.0269 15.9976 12.7205 15.5614 13.3542C15.4099 13.5748 15.3683 13.7898 15.4733 14.0449C15.7806 14.7907 16.0751 15.5421 16.3746 16.2914C16.3894 16.3287 16.4098 16.3647 16.4056 16.4197L16.4063 16.419Z" fill="black"/>
</svg>
