<svg id="Layer_1" enable-background="new 0 0 512 512" height="512" viewBox="0 0 512 512" width="512" xmlns="http://www.w3.org/2000/svg"><g id="Layer_2_00000155850313156645562900000012614083585854593178_"><g id="wifi_"><path d="m87.8 387c-31.3-14.2-68.1-.3-82.2 31-14.2 31.3-.3 68.1 31 82.2 8 3.6 16.7 5.5 25.5 5.5 34.3 0 62.2-27.7 62.2-62.1.1-24.4-14.2-46.6-36.5-56.6zm21.8 78.1c-8.5 18.6-27 30.6-47.5 30.6-28.8 0-52.1-23.4-52.1-52.2 0-7.4 1.6-14.7 4.7-21.5 8.5-18.6 27.1-30.5 47.5-30.6 28.8 0 52.1 23.4 52.1 52.2 0 7.4-1.6 14.8-4.7 21.5z"/><path d="m491.8 318.5c-13.3-42.8-33-83.4-58.4-120.5-52.4-76.7-127.5-135-214.8-166.7-39.3-14.4-80.4-23.2-122.2-26.2-1.2-.1-2.5-.1-3.7-.1-28.3 0-51.2 23-51.2 51.3v3.9c0 26.8 20.7 49.2 47.2 51.1 31.9 2.3 63.3 9 93.4 20 134 49.1 223.8 177.9 223.4 320.7-.1 25.8 19.3 48.3 45.1 52.3 2.7.4 5.5.6 8.2.6 29.3 0 53-23.7 53.1-53 .2-45.2-6.6-90.2-20.1-133.4zm-33 176.3c-2.2 0-4.5-.2-6.7-.5-21-3.2-36.7-21.5-36.7-42.4.4-146.9-92-279.5-230-330-30.9-11.3-63.2-18.3-96.1-20.6-21.2-1.5-37.9-19.6-37.9-41.1v-3.9c.1-22.8 18.5-41.3 41.3-41.3 1 0 2 0 3 .1 40.8 2.9 81.1 11.6 119.5 25.6 85.3 31 158.8 88 210 163 24.8 36.2 44 75.9 57 117.8 13.2 42.2 19.8 86.2 19.8 130.4-.1 23.7-19.4 42.9-43.2 42.9z"/><path d="m146.7 227.9c-14.8-5.4-30.1-9.4-45.7-11.8-2.6-.4-5.3-.6-8-.6-13.5 0-26.5 5.3-36.2 14.9-20.1 19.9-20.3 52.4-.4 72.5 7.8 7.9 17.9 13 28.8 14.6 67.1 10.2 116.3 68.6 114.8 136.5-.9 28.4 21.4 52.2 49.8 53.1h1.6c21.2 0 40.2-13 47.9-32.7 2-5.3 3.2-11 3.3-16.7 1.4-49.2-12.6-97.7-40-138.6-27.9-42.1-68.5-74-115.9-91.2zm145.8 229.5c-.1 4.6-1 9.1-2.6 13.4-8.4 21.3-32.5 31.7-53.7 23.3-16.3-6.4-26.7-22.4-26.1-39.9 1.5-72.9-51.2-135.6-123.2-146.5-22.5-3.4-38.1-24.4-34.7-47 3-20.2 20.5-35.2 40.9-35.1 2.2 0 4.3.2 6.5.5 14.9 2.3 29.6 6.1 43.8 11.3 45.3 16.5 84.2 47.1 110.9 87.3 26.1 39.1 39.5 85.5 38.2 132.7z"/></g></g></svg>