<svg width="62" height="56" viewBox="0 0 62 56" fill="none" xmlns="http://www.w3.org/2000/svg">
<g clip-path="url(#clip0_3020_1594)">
<path d="M36.0384 40.735C29.7333 40.735 23.4281 40.7302 17.1205 40.7374C15.5588 40.7374 14.1161 40.3904 12.8895 39.4067C11.3424 38.1669 10.4559 36.5705 10.3563 34.5864C10.3247 33.9713 10.3393 33.3539 10.3393 32.7388C10.3393 24.0413 10.3442 15.3438 10.3393 6.64388C10.3393 4.78424 10.9465 3.18307 12.2896 1.85954C13.5987 0.574303 15.209 0.021435 17.0209 0.00946813C19.6537 -0.00967881 22.2866 0.00468139 24.9218 0.00468139C35.0013 0.00468139 45.0809 0.00468139 55.158 0.00468139C56.5254 0.00468139 57.8296 0.255985 58.9857 1.0075C60.7515 2.15871 61.7181 3.79577 61.9465 5.86604C62.0023 6.38061 61.9999 6.89758 61.9999 7.41455C61.9999 16.2915 61.9999 25.1685 61.9999 34.0455C61.9999 36.0512 61.3441 37.7959 59.797 39.1434C58.5097 40.2659 56.9626 40.735 55.2575 40.735C48.8504 40.735 42.4432 40.735 36.0384 40.735ZM15.5296 30.343C15.6001 30.3598 15.6244 30.3071 15.6584 30.2736C16.8388 29.1032 18.0143 27.9281 19.1971 26.7577C20.329 25.6376 21.4559 24.5128 22.6023 23.407C24.4871 21.5905 27.3603 21.6503 29.1504 23.5075C30.0612 24.4505 31.0157 25.3528 31.9435 26.2815C32.1086 26.4466 32.1985 26.4275 32.3442 26.2551C34.3067 23.9216 36.274 21.5905 38.2438 19.2617C39.3659 17.9334 40.539 16.6434 41.6077 15.2744C43.371 13.0174 46.917 12.9289 48.7921 15.1954C49.7344 16.3346 50.7351 17.4284 51.7066 18.5461C53.3436 20.4249 54.9758 22.3037 56.6152 24.1801C56.6662 24.2399 56.7002 24.3668 56.8168 24.3141C56.8897 24.2806 56.846 24.1873 56.846 24.1226C56.846 18.4073 56.8435 12.6895 56.8411 6.97417C56.8411 6.71568 56.846 6.4572 56.8047 6.20111C56.7197 5.67696 56.4064 5.35146 55.9109 5.17435C55.6753 5.09059 55.4324 5.11452 55.192 5.11452C42.9921 5.11452 30.7947 5.11452 18.5948 5.11452C18.0094 5.11452 17.4241 5.10255 16.8388 5.11691C15.9668 5.13845 15.5078 5.61234 15.5078 6.46917C15.5078 14.3218 15.5078 22.1768 15.5078 30.0295C15.5078 30.1348 15.4786 30.2425 15.5321 30.3406L15.5296 30.343Z" fill="black"/>
<path d="M6.4635 18.01C6.4635 23.6967 6.47565 29.3618 6.46108 35.0269C6.44893 39.4618 9.68895 43.4395 14.1069 44.3514C14.8477 44.5046 15.6055 44.5525 16.3633 44.5525C28.5826 44.5525 40.7995 44.5525 53.0188 44.5525C53.1402 44.5525 53.2616 44.5596 53.3831 44.5525C53.5652 44.5405 53.6114 44.5979 53.5507 44.7774C53.3126 45.505 53.0868 46.235 52.856 46.9626C52.329 48.6188 51.7995 50.275 51.2724 51.9312C50.6968 53.7454 49.5286 55.0163 47.7021 55.6601C46.4464 56.1004 45.1883 56.1028 43.9059 55.7175C42.2883 55.2341 40.6343 54.8679 39.0046 54.4227C35.2302 53.3936 31.4413 52.4147 27.6596 51.4118C22.9235 50.1577 18.1873 48.9108 13.4512 47.6614C10.505 46.8836 7.55889 46.1057 4.61033 45.3303C3.89383 45.1412 3.20891 44.8827 2.59928 44.4663C1.176 43.4898 0.362357 42.1328 0.0684717 40.4622C-0.0796852 39.6197 0.0368973 38.8012 0.282206 37.9922C2.15238 31.8461 4.02013 25.6999 5.89031 19.5537C6.02389 19.1181 6.16962 18.6849 6.31049 18.2493C6.33721 18.1656 6.35421 18.077 6.46593 18.01H6.4635Z" fill="black"/>
<path d="M23.2512 17.8307C20.4289 17.8307 18.1167 15.5283 18.1143 12.728C18.1143 9.6669 20.7981 7.63493 23.2487 7.64211C26.0637 7.65168 28.3954 9.9541 28.3954 12.7424C28.3954 15.5426 26.0832 17.8307 23.2512 17.8307Z" fill="black"/>
</g>
<defs>
<clipPath id="clip0_3020_1594">
<rect width="62" height="56" fill="white"/>
</clipPath>
</defs>
</svg>
