<?xml version="1.0" encoding="UTF-8"?>
<svg id="Layer_1" data-name="Layer 1" xmlns="http://www.w3.org/2000/svg" viewBox="0 0 256.06 256.06">
  <path d="m172.76,91.77c44.67,0,80.96,36.4,80.87,81.12-.09,44.42-36.41,80.63-80.87,80.63-44.66,0-80.96-36.42-80.88-81.13.08-44.41,36.41-80.63,80.88-80.63Zm.27,29.43q-7.62,0-7.62,7.74c0,.65-.07,1.31.01,1.96.47,4-.58,6.57-4.56,8.89-7.88,4.6-11.24,12.26-9.86,21.29,1.39,9.17,6.84,15.36,15.88,17.97,2.32.67,4.85.56,7.22,1.11,3.54.83,5.76,3.15,5.94,6.85.18,3.71-1.79,6.28-5.27,7.35-3.57,1.1-6.89-.13-8.22-3.47-1.35-3.38-3.46-3.71-6.39-3.53-2.11.13-4.25.14-6.36.01-2.81-.17-3.33,1.17-2.83,3.6,1.22,5.84,3.76,11.25,9.01,13.96,4.99,2.57,6.03,6.01,5.46,10.87-.17,1.45.15,2.96-.06,4.4-.49,3.4,1.13,3.97,4.15,3.97,10.55-.01,10.66.09,10.5-10.26-.06-3.63.4-6,4.2-8.13,7.95-4.45,11.32-11.98,10.38-21.08-.92-8.83-7.37-16.16-15.98-18.47-2.34-.62-4.86-.54-7.22-1.09-3.54-.83-5.76-3.14-5.94-6.84-.18-3.71,1.79-6.28,5.27-7.35,3.57-1.09,6.89.13,8.22,3.47,1.35,3.37,3.46,3.72,6.39,3.53,2.11-.13,4.25-.14,6.36-.01,2.8.17,3.34-1.17,2.83-3.6-1.15-5.47-3.29-10.97-8.24-13.33-6.44-3.06-6.69-7.8-6.22-13.46.08-.97-.11-1.97.03-2.93.42-2.94-1.01-3.74-3.65-3.43-1.13.13-2.28.02-3.43.02Z"/>
  <path d="m84.74,2.54c18.12.21,35.72,2.98,52.28,10.76,7.45,3.5,14.26,7.92,19.8,14.1,11.75,13.12,11.52,28.56-.79,41.12-10.67,10.89-24.27,16.29-38.77,19.55-27.71,6.23-55.07,5.12-81.8-5.02-9.08-3.45-17.39-8.26-24.11-15.44C-.07,55.42-.33,40.41,10.91,28.07,22.76,15.06,38.48,9.32,55.1,5.61c9.74-2.18,19.64-3.15,29.64-3.07Z"/>
  <path d="m3.19,80.81c29.87,23.77,64.42,27.51,101.49,24.68-8.43,9.08-14.88,18.39-19.46,28.91-.7,1.62-1.94,1.5-3.23,1.47-20.82-.54-40.86-4.17-59.11-14.91-1.54-.91-3-1.97-4.47-3C5.57,108.89.35,96.62,3.19,80.81Z"/>
  <path d="m2.66,168.3c21.5,18.31,46.41,24.22,72.72,25.98,3.26.22,4.86,1.04,5.65,4.39,1.85,7.82,5.17,15.11,9.28,22,1.44,2.41,1.32,3.34-1.77,3.4-22.35.37-43.98-2.77-63.79-13.83-10.21-5.7-18.8-13.11-21.54-25.29-1.16-5.15-.37-10.4-.56-16.65Z"/>
  <path d="m3.17,124.53c14.05,12.4,30.56,18.81,48.27,22.61,8.15,1.75,16.42,2.64,24.72,3.11,2.73.15,3.69.75,3.04,3.67-1.63,7.35-2.39,14.81-1.89,22.35.18,2.63-.63,3.36-3.28,3.16-16.42-1.19-32.23-4.61-46.99-12.16-4.37-2.24-8.39-5-12.18-8.12-10.91-8.97-13.85-20.63-11.69-34.62Z"/>
</svg>