<svg width="18" height="18" viewBox="0 0 18 18" fill="none" xmlns="http://www.w3.org/2000/svg">
<path d="M5.99111e-06 6.32354C-0.00140349 5.90048 0.245961 5.54794 0.662463 5.40621C1.44543 5.13969 2.23122 4.88092 3.0163 4.61933C5.65908 3.73797 8.30186 2.85661 10.9446 1.97525C12.8467 1.34066 14.7488 0.706788 16.6509 0.0715014C16.8483 0.00592805 17.0449 -0.0236857 17.2542 0.0221451C17.7503 0.129319 18.133 0.732171 17.9561 1.25041C17.7686 1.80109 17.5882 2.35388 17.405 2.90596C17.0364 4.01225 16.6678 5.11854 16.2993 6.22482C15.8186 7.66673 15.3373 9.10794 14.8567 10.5498C14.376 11.9918 13.8968 13.4337 13.4155 14.8756C13.1462 15.6822 12.8763 16.4888 12.6022 17.294C12.4873 17.6325 12.2766 17.8786 11.9137 17.9688C11.3985 18.0964 10.9059 17.8236 10.7572 17.3131C10.5007 16.4317 10.254 15.5468 10.0017 14.6648C9.51895 12.9754 9.03408 11.286 8.55416 9.59586C8.52808 9.5049 8.4872 9.46612 8.39841 9.44074C5.84583 8.7145 3.29467 7.98473 0.742803 7.25778C0.32912 7.14003 0.0803465 6.88056 0.0070534 6.45539C0.00423444 6.44129 0.00141547 6.42648 0.000710732 6.41238C5.99108e-06 6.38347 5.99111e-06 6.35315 5.99111e-06 6.32354ZM16.6855 2.00063C16.6101 2.04575 16.5762 2.10216 16.5318 2.14658C15.5353 3.14287 14.5409 4.14199 13.543 5.13687C12.5345 6.14233 11.5338 7.15413 10.5197 8.15395C10.1737 8.49521 9.83678 8.84635 9.48441 9.18197C9.44142 9.22287 9.44636 9.26094 9.45975 9.30818C9.66271 10.0161 9.86568 10.7247 10.0679 11.4326C10.557 13.1446 11.0447 14.8565 11.5345 16.5678C11.5782 16.7208 11.6148 16.8759 11.6776 17.0268C13.3464 12.02 15.0131 7.02017 16.6855 2.00063ZM15.9842 1.35829C15.9765 1.34701 15.9694 1.33573 15.9617 1.32445C10.9672 2.98917 5.97269 4.65388 0.961273 6.32354C1.07192 6.35668 1.16847 6.38629 1.26572 6.41379C2.43348 6.74236 3.59841 7.0808 4.76688 7.40797C6.07276 7.77391 7.37865 8.14196 8.67748 8.53188C8.74443 8.55233 8.79165 8.54316 8.84169 8.49169C9.02281 8.30413 9.20675 8.1194 9.39139 7.93537C10.3956 6.92991 11.3999 5.92516 12.4042 4.92041C13.4873 3.83739 14.5712 2.75437 15.6558 1.67206C15.763 1.56488 15.8743 1.46264 15.9842 1.35829Z" fill="black"/>
</svg>
