<svg width="21" height="22" viewBox="0 0 21 22" fill="none" xmlns="http://www.w3.org/2000/svg">
<path d="M9.57056 0.0507302C9.26847 0.0822793 8.96934 0.132561 8.67712 0.213405C6.60493 0.78819 5.0461 2.01565 4.01346 3.9007C3.46259 4.90534 3.17432 5.98491 3.15754 7.13054C3.14372 8.07208 3.15655 9.01461 3.15556 9.95714C3.15556 10.4452 3.13483 10.9302 3.05289 11.4133C2.83175 12.7157 2.29075 13.8653 1.42989 14.8679C1.15643 15.1864 0.827683 15.4477 0.5404 15.7503C0.0230927 16.2955 -0.134864 16.9384 0.118854 17.6541C0.384418 18.4024 1.0735 18.854 1.91659 18.854C3.43396 18.855 4.95133 18.854 6.46968 18.854C6.69675 18.854 6.64344 18.8224 6.69477 19.0354C7.18937 21.0733 9.228 22.3086 11.1728 21.933C12.8225 21.6145 13.8867 20.6138 14.3211 18.9762C14.3478 18.8767 14.3872 18.85 14.487 18.851C15.2619 18.855 16.0369 18.853 16.8129 18.853C17.4891 18.853 18.1663 18.853 18.8426 18.853C19.0193 18.853 19.195 18.85 19.3708 18.8293C20.3313 18.7179 21.1981 17.8178 20.9602 16.6672C20.8664 16.2147 20.6206 15.8588 20.2761 15.561C19.5317 14.9172 18.9453 14.1522 18.5237 13.2619C18.1199 12.4081 17.8919 11.5119 17.8682 10.5645C17.8425 9.5401 17.8573 8.51673 17.8564 7.49237C17.8564 6.62181 17.7369 5.76999 17.4476 4.94872C16.8622 3.28648 15.8207 1.98311 14.3231 1.04847C13.4583 0.509178 12.5135 0.194673 11.5075 0.0536879C10.7641 -0.0133538 10.1086 -0.0212411 9.57451 0.0507302H9.57056ZM12.6882 18.992C12.3309 19.8764 11.3683 20.4788 10.4117 20.4186C9.43038 20.3565 8.73636 19.8754 8.31777 18.992C8.2536 18.8559 8.25755 18.854 8.40366 18.854C9.10459 18.854 9.80552 18.854 10.5055 18.854C11.2064 18.854 11.9073 18.854 12.6073 18.854C12.7425 18.854 12.7435 18.8569 12.6882 18.993V18.992ZM19.4122 17.1247C19.3658 17.2223 19.2938 17.2795 19.1822 17.2795C19.0963 17.2795 19.0104 17.2795 18.9236 17.2795C16.1179 17.2795 13.3122 17.2795 10.5065 17.2795C7.66028 17.2795 4.81312 17.2795 1.96694 17.2795C1.93042 17.2795 1.8929 17.2795 1.85637 17.2795C1.73494 17.2795 1.64116 17.2341 1.59575 17.1138C1.55132 16.9965 1.58587 16.896 1.67275 16.8131C1.83663 16.6584 2.00742 16.5105 2.16538 16.3508C3.31549 15.1943 4.0954 13.8288 4.47647 12.2415C4.64233 11.5504 4.72427 10.8484 4.72131 10.1366C4.71736 9.14081 4.71341 8.14602 4.72624 7.15026C4.74204 5.88928 5.18234 4.77422 5.94349 3.78239C6.7777 2.69395 7.87846 2.00677 9.20726 1.68832C9.91214 1.51875 10.6289 1.51579 11.3456 1.60945C12.4878 1.75832 13.4662 2.25325 14.33 2.99958C15.258 3.80113 15.8365 4.81168 16.1277 5.99083C16.2472 6.47392 16.2768 6.96885 16.2778 7.46575C16.2807 8.48518 16.2551 9.50559 16.2916 10.525C16.3499 12.1508 16.8287 13.6435 17.729 15.0001C18.1387 15.6172 18.6205 16.1733 19.1783 16.6633C19.2493 16.7254 19.3194 16.7895 19.3797 16.8615C19.4448 16.9393 19.4567 17.03 19.4112 17.1257L19.4122 17.1247Z" fill="black"/>
</svg>
