<svg width="20" height="20" viewBox="0 0 20 20" fill="none" xmlns="http://www.w3.org/2000/svg">
<path d="M7.30103 0C8.48657 0.00548135 9.54603 0.252142 10.5468 0.73685C11.5632 1.2286 12.4316 1.90829 13.1324 2.7994C13.9162 3.79466 14.4244 4.91207 14.6437 6.15947C14.8911 7.56896 14.7087 8.93068 14.166 10.247C13.5921 11.6392 12.6532 12.73 11.394 13.5499C10.434 14.1755 9.3769 14.5248 8.24382 14.6673C7.73406 14.7315 7.22429 14.7401 6.71453 14.6978C6.00978 14.6399 5.33244 14.4614 4.6739 14.2092C4.52199 14.1513 4.37164 14.0902 4.22286 14.0244C3.90808 13.8843 3.63244 13.9351 3.37952 14.1693C2.77109 14.7339 2.03972 14.986 1.21908 14.9946C0.961462 14.997 0.707754 14.9476 0.457178 14.8881C0.342852 14.8607 0.342069 14.8591 0.389835 14.755C0.600476 14.2914 0.764133 13.8114 0.846353 13.3103C1.0288 12.1999 0.928573 11.1154 0.511991 10.0638C0.22931 9.34648 0.0562563 8.60337 0.0131885 7.83676C-0.104269 5.75385 0.564455 3.94814 1.95437 2.39926C2.59882 1.68121 3.36229 1.12446 4.23069 0.717273C5.22282 0.251359 6.2721 0.0078305 7.30103 0ZM8.4341 7.39982C8.4341 6.8047 7.96427 6.33174 7.37307 6.33174C6.7897 6.33174 6.30108 6.81253 6.30108 7.38572C6.30108 7.99102 6.77326 8.46242 7.3856 8.46633C7.96819 8.47025 8.43332 7.9965 8.4341 7.39903V7.39982ZM11.3423 8.46398C11.885 8.4679 12.423 7.95265 12.3799 7.33091C12.3415 6.77338 11.8318 6.30746 11.2813 6.33252C10.6431 6.36149 10.2202 6.88222 10.2398 7.43584C10.2602 8.02626 10.7707 8.4953 11.3423 8.46398ZM3.43355 8.45928C4.02005 8.46163 4.50163 7.98945 4.50554 7.40765C4.51024 6.82349 4.02553 6.3333 3.44216 6.33174C2.85644 6.32939 2.36312 6.81488 2.36312 7.39355C2.36312 7.98006 2.84235 8.45772 3.43277 8.46007L3.43355 8.45928Z" fill="black"/>
<path d="M6.25781 16.0173C6.30871 15.9954 6.35883 16.0197 6.40894 16.0244C7.50991 16.1238 8.59756 16.0643 9.67113 15.7769C10.6139 15.5248 11.4839 15.1199 12.2881 14.5718C13.6905 13.6149 14.7382 12.3613 15.4109 10.8006C15.7382 10.0411 15.9551 9.24942 16.0428 8.42722C16.1117 7.78277 16.1164 7.13597 16.0592 6.48917C16.0405 6.2754 16.0185 6.06241 15.9755 5.85177C15.9708 5.82985 15.9621 5.80322 15.9802 5.78599C16.0021 5.76485 16.0209 5.78913 16.0405 5.79852C16.7703 6.17282 17.4264 6.65048 17.9895 7.24638C18.8414 8.14924 19.4373 9.20009 19.7631 10.4005C19.9604 11.1256 20.0317 11.8632 19.987 12.6118C19.9299 13.5632 19.6902 14.4747 19.3856 15.3737C19.0685 16.3102 19.0137 17.271 19.1633 18.2435C19.2431 18.7658 19.395 19.2693 19.6253 19.747C19.6636 19.8269 19.6487 19.855 19.5603 19.8778C18.4742 20.1534 17.5134 19.9083 16.6708 19.1832C16.4852 19.0234 16.2965 18.9044 16.0412 18.935C15.923 18.9491 15.8149 18.9937 15.7092 19.043C15.0045 19.3696 14.2645 19.5669 13.494 19.6632C12.429 19.7963 11.3946 19.6671 10.3743 19.3515C9.66721 19.1331 9.01963 18.7995 8.41746 18.3813C7.53966 17.7721 6.83257 16.9977 6.28209 16.0807C6.27034 16.062 6.25468 16.0439 6.25938 16.0165L6.25781 16.0173Z" fill="black"/>
</svg>
