<svg id="Layer_1" enable-background="new 0 0 512 512" viewBox="0 0 512 512" xmlns="http://www.w3.org/2000/svg" xmlns:xlink="http://www.w3.org/1999/xlink"><linearGradient id="SVGID_1_" gradientUnits="userSpaceOnUse" x1="42.686" x2="469.313" y1="503.16" y2="76.533"><stop offset="0" stop-color="#fcc60e"/><stop offset="1" stop-color="#e92e29"/></linearGradient><path d="m431.446 374.55c14.754-10.487 24.407-27.704 24.407-47.143 0-31.882-25.938-57.82-57.82-57.82s-57.819 25.938-57.819 57.82c0 19.488 9.701 36.742 24.518 47.222-21.498 7.126-40.501 21.003-53.777 39.779-6.737-4.047-13.955-7.366-21.542-9.857 14.754-10.487 24.408-27.704 24.408-47.143 0-31.882-25.938-57.82-57.82-57.82s-57.819 25.938-57.819 57.82c0 19.44 9.653 36.656 24.407 47.144-7.587 2.491-14.804 5.81-21.542 9.857-13.276-18.776-32.28-32.653-53.776-39.779 14.816-10.48 24.518-27.734 24.518-47.222 0-31.882-25.938-57.82-57.819-57.82s-57.819 25.938-57.819 57.82c0 19.439 9.653 36.655 24.406 47.143-38.797 12.737-67.946 47.122-72.509 89.758-.242 2.257.486 4.51 2.004 6.199 1.518 1.688 3.681 2.652 5.95 2.652l138.53-.001c-2.155 6.763-3.668 13.834-4.451 21.15-.242 2.257.486 4.51 2.004 6.198s3.681 2.653 5.95 2.653h195.934c2.27 0 4.433-.964 5.95-2.653 1.518-1.688 2.246-3.941 2.004-6.198-.783-7.316-2.296-14.387-4.451-21.15l138.528-.001c2.27 0 4.433-.964 5.95-2.653 1.518-1.688 2.246-3.941 2.004-6.198-4.562-42.636-33.711-77.019-72.508-89.757zm-75.232-47.143c0-23.06 18.76-41.82 41.819-41.82s41.82 18.76 41.82 41.82c0 23.055-18.753 41.812-41.807 41.819-.004 0-.009 0-.013 0s-.008 0-.012 0c-23.054-.006-41.807-18.764-41.807-41.819zm-142.034 30.001c0-23.06 18.76-41.82 41.819-41.82s41.82 18.76 41.82 41.82c0 23.059-18.761 41.819-41.82 41.819s-41.819-18.76-41.819-41.819zm-142.032-30.001c0-23.06 18.76-41.82 41.819-41.82s41.819 18.76 41.819 41.82c0 23.055-18.754 41.813-41.808 41.819-.004 0-.008 0-.012 0s-.008 0-.013 0c-23.052-.007-41.805-18.764-41.805-41.819zm-46.807 129.752c8.616-41.58 45.254-71.928 88.616-71.933h.011.011c29.415.004 57.15 14.568 74.01 38.425-11.063 9.156-20.251 20.531-26.877 33.507zm142.033 30.001c8.616-41.583 45.26-71.932 88.626-71.932s80.01 30.349 88.626 71.933zm183.515-30.001c-6.626-12.977-15.814-24.352-26.878-33.508 16.858-23.857 44.594-38.421 74.01-38.425h.012.01c43.362.005 80 30.352 88.616 71.932zm-50.851-277.899c0 4.418-3.582 8-8 8h-72.076c-4.418 0-8-3.582-8-8s3.582-8 8-8h72.076c4.418 0 8 3.581 8 8zm0-32.837c0 4.418-3.582 8-8 8h-72.076c-4.418 0-8-3.582-8-8s3.582-8 8-8h72.076c4.418 0 8 3.581 8 8zm52.002-57.675h-192.08c-4.418 0-8-3.582-8-8s3.582-8 8-8h192.08c4.418 0 8 3.582 8 8s-3.582 8-8 8zm-200.081-40.837c0-4.418 3.582-8 8-8h192.081c4.418 0 8 3.582 8 8s-3.582 8-8 8h-192.081c-4.418 0-8-3.582-8-8zm140.079 57.674c4.418 0 8 3.582 8 8s-3.582 8-8 8h-72.076c-4.418 0-8-3.582-8-8s3.582-8 8-8zm185.73-9.749h-79.736c-.298-25.346-.547-48.375-.547-60.765 0-14.464-11.768-26.232-26.231-26.232h-233.54c-14.464 0-26.231 11.768-26.231 26.232 0 12.441.249 35.442.547 60.765h-77.798c-14.464 0-26.232 11.768-26.232 26.232v91.376c0 14.464 11.768 26.232 26.232 26.232h79.022l33.316 34.681c1.539 1.602 3.635 2.458 5.771 2.458 1.004 0 2.017-.189 2.985-.579 3.028-1.219 5.013-4.157 5.013-7.421v-29.139h7.428c12.79 0 23.465-9.204 25.766-21.334h32.542l22.816 44.146c1.373 2.658 4.115 4.327 7.106 4.327 2.992 0 5.733-1.669 7.107-4.327l22.814-44.146h32.543c2.301 12.131 12.976 21.334 25.766 21.334h7.428v29.139c0 3.265 1.984 6.202 5.013 7.421.969.39 1.981.579 2.985.579 2.137 0 4.232-.856 5.771-2.458l33.316-34.681h79.022c14.465 0 26.232-11.768 26.232-26.232v-91.376c.006-14.464-11.762-26.232-26.226-26.232zm-299.768 117.609c0 5.642-4.59 10.232-10.231 10.232h-15.428c-4.418 0-8 3.582-8 8v17.264l-21.908-22.806c-1.509-1.57-3.592-2.458-5.77-2.458h-82.431c-5.643 0-10.232-4.59-10.232-10.232v-91.376c0-5.642 4.59-10.232 10.232-10.232h133.536c5.642 0 10.231 4.59 10.231 10.232v91.376zm103.051-11.103c-2.991 0-5.733 1.669-7.107 4.327l-17.944 34.722-17.945-34.721c-1.373-2.658-4.114-4.327-7.106-4.327h-36.949v-80.274c0-14.464-11.768-26.232-26.231-26.232h-39.74c-.298-25.346-.547-48.375-.547-60.765 0-5.642 4.59-10.232 10.231-10.232h233.54c5.642 0 10.231 4.59 10.231 10.232 0 12.441.249 35.442.547 60.765h-37.8c-14.464 0-26.231 11.768-26.231 26.232v80.274h-36.949zm206.949 11.103c0 5.642-4.59 10.232-10.232 10.232h-82.431c-2.178 0-4.261.888-5.77 2.458l-21.908 22.806v-17.264c0-4.418-3.582-8-8-8h-15.428c-5.642 0-10.231-4.59-10.231-10.232v-91.376c0-5.642 4.59-10.232 10.231-10.232h133.536c5.643 0 10.232 4.59 10.232 10.232v91.376zm-22.962-45.688c0 4.418-3.582 8-8 8h-92.077c-4.418 0-8-3.582-8-8s3.582-8 8-8h92.077c4.418 0 8 3.581 8 8zm0 32.837c0 4.418-3.582 8-8 8h-92.077c-4.418 0-8-3.582-8-8s3.582-8 8-8h92.077c4.418 0 8 3.581 8 8zm0-65.675c0 4.418-3.582 8-8 8h-92.077c-4.418 0-8-3.582-8-8s3.582-8 8-8h92.077c4.418 0 8 3.581 8 8zm-309.999 32.838c0 4.418-3.582 8-8 8h-92.078c-4.418 0-8-3.582-8-8s3.582-8 8-8h92.078c4.418 0 8 3.581 8 8zm0 32.837c0 4.418-3.582 8-8 8h-92.078c-4.418 0-8-3.582-8-8s3.582-8 8-8h92.078c4.418 0 8 3.581 8 8zm0-65.675c0 4.418-3.582 8-8 8h-92.078c-4.418 0-8-3.582-8-8s3.582-8 8-8h92.078c4.418 0 8 3.581 8 8z" fill="url(#SVGID_1_)"/></svg>