<svg width="28" height="24" viewBox="0 0 28 24" fill="none" xmlns="http://www.w3.org/2000/svg">
<path d="M1 8.4546V8.20295C1 4.67984 3.53906 1.66003 7.04297 1.1064C9.32812 0.703759 11.7148 1.45871 13.3906 3.1196L14 3.67324L14.5586 3.1196C16.2344 1.45871 18.6211 0.703759 20.9062 1.1064C24.4102 1.66003 27 4.67984 27 8.20295V8.4546C27 10.5685 26.0859 12.5817 24.5625 13.9909L15.3711 22.4967C15.0156 22.849 14.5078 23 14 23C13.4414 23 12.9336 22.849 12.5781 22.4967L3.38672 13.9909C1.86328 12.5817 1 10.5685 1 8.4546Z" stroke="black" stroke-width="1.5"/>
</svg>
