<svg width="20" height="20" viewBox="0 0 20 20" fill="none" xmlns="http://www.w3.org/2000/svg">
<path d="M2.08301 9.11534C2.08301 8.09519 2.55016 7.1312 3.35086 6.49906L7.93419 2.88064C9.14522 1.92457 10.8541 1.92457 12.0652 2.88064L16.6485 6.49906C17.4492 7.1312 17.9163 8.09518 17.9163 9.11534V14.5833C17.9163 16.4243 16.424 17.9167 14.583 17.9167H13.333C12.8728 17.9167 12.4997 17.5436 12.4997 17.0833V14.5833C12.4997 13.6629 11.7535 12.9167 10.833 12.9167H9.16634C8.24587 12.9167 7.49967 13.6629 7.49967 14.5833V17.0833C7.49967 17.5436 7.12658 17.9167 6.66634 17.9167H5.41634C3.57539 17.9167 2.08301 16.4243 2.08301 14.5833L2.08301 9.11534Z" fill="#FF9E59" stroke="#FF9E59" stroke-width="1.25"/>
</svg>
