<svg width="20" height="20" viewBox="0 0 20 20" fill="none" xmlns="http://www.w3.org/2000/svg">
<path d="M10 0C15.5078 0 20 4.49219 20 10C20 15.5469 15.5078 20 10 20C4.45312 20 0 15.5469 0 10C0 4.49219 4.45312 0 10 0ZM10 5C8.4375 5 7.1875 6.28906 7.1875 7.8125C7.1875 9.375 8.4375 10.625 10 10.625C11.5234 10.625 12.8125 9.375 12.8125 7.8125C12.8125 6.28906 11.5234 5 10 5ZM10 17.5C12.0312 17.5 13.9062 16.6797 15.2734 15.3125C14.6484 13.6719 13.0859 12.5 11.25 12.5H8.75C6.875 12.5 5.3125 13.6719 4.6875 15.3125C6.05469 16.6797 7.92969 17.5 10 17.5Z" fill="black"/>
</svg>
