<svg width="20" height="20" viewBox="0 0 20 20" fill="none" xmlns="http://www.w3.org/2000/svg">
<path d="M19.5605 17.3336C20.1465 17.9587 20.1465 18.9354 19.5605 19.5605C18.9354 20.1465 17.9587 20.1465 17.3336 19.5605L12.6844 14.8723C11.0826 15.9271 9.12922 16.4741 7.01953 16.2006C3.42524 15.6927 0.53418 12.7626 0.0653597 9.20736C-0.598803 3.89406 3.89406 -0.598803 9.20736 0.0653597C12.7626 0.53418 15.6927 3.42524 16.2006 7.01953C16.4741 9.12922 15.9271 11.0826 14.8723 12.6454L19.5605 17.3336ZM3.11269 8.11345C3.11269 10.8873 5.33959 13.1142 8.11345 13.1142C10.8482 13.1142 13.1142 10.8873 13.1142 8.11345C13.1142 5.37866 10.8482 3.11269 8.11345 3.11269C5.33959 3.11269 3.11269 5.37866 3.11269 8.11345Z" fill="black"/>
</svg>
