<svg width="26" height="26" viewBox="0 0 26 26" fill="none" xmlns="http://www.w3.org/2000/svg">
<path d="M12.545 0C13.3809 0.00712848 14.2076 0.0906336 15.0262 0.25968C16.3345 0.530563 17.5796 0.976602 18.7444 1.6314C20.7857 2.77909 22.3648 4.38911 23.5163 6.42684C24.2687 7.75884 24.7024 9.19167 24.9213 10.6978C25.0557 11.6245 25.0445 12.5522 24.96 13.482C24.8877 14.2865 24.6963 15.0645 24.4611 15.8324C24.3206 16.2896 23.9541 16.5625 23.4959 16.5788C23.0744 16.5941 22.655 16.3293 22.4961 15.9454C22.3984 15.7091 22.3964 15.4698 22.4697 15.2254C22.7832 14.1765 22.9339 13.1062 22.9156 12.0105C22.8942 10.7212 22.602 9.49412 22.095 8.31079C21.477 6.8688 20.5749 5.64372 19.3746 4.63453C17.9441 3.43084 16.3171 2.63856 14.4754 2.30148C13.2882 2.08457 12.094 2.06828 10.9007 2.25362C9.0162 2.5469 7.33223 3.29641 5.85697 4.5052C4.63624 5.50624 3.69957 6.72623 3.05612 8.17128C2.72625 8.9106 2.46459 9.67131 2.32816 10.4717C2.16628 11.4239 2.11843 12.3812 2.23348 13.3404C2.60916 16.4698 4.12922 18.9058 6.73052 20.6685C7.78733 21.3844 8.94901 21.8793 10.1972 22.1462C12.0726 22.5474 13.9378 22.5077 15.7714 21.9089C16.7804 21.58 17.7405 21.141 18.5998 20.5066C18.9744 20.2296 19.3338 19.9343 19.682 19.6257C20.0425 19.306 20.5067 19.2713 20.916 19.5188C20.9781 19.5565 21.0392 19.5962 21.084 19.6532C21.3426 19.9862 21.6613 20.2591 21.9616 20.5504C23.1386 21.6889 24.3125 22.8305 25.4701 23.9894C25.5871 24.1065 25.6991 24.2267 25.7938 24.3631C26.1074 24.8153 26.0596 25.3754 25.6757 25.7206C25.2664 26.0892 24.6637 26.0974 24.2565 25.7196C23.8533 25.3458 23.4664 24.9548 23.0734 24.5688C22.1734 23.6859 21.2734 22.802 20.3764 21.917C20.3011 21.8427 20.2563 21.8254 20.1595 21.8977C19.3002 22.5413 18.3931 23.1024 17.3882 23.4945C16.6552 23.7806 15.9079 24.0189 15.1361 24.1808C13.8431 24.4517 12.5379 24.5393 11.2245 24.3937C9.38578 24.19 7.66515 23.6228 6.05958 22.6971C4.91826 22.0382 3.93578 21.195 3.06019 20.2184C2.0044 19.0412 1.22554 17.698 0.700186 16.2132C0.196216 14.7997 -0.0481333 13.3364 0.00786335 11.8312C0.0618238 10.3556 0.379478 8.93402 0.957771 7.57554C1.57475 6.12846 2.45034 4.8545 3.54787 3.72616C4.99055 2.24344 6.72339 1.24545 8.67513 0.607958C9.58533 0.310598 10.5251 0.138496 11.4801 0.0529544C11.8344 0.0213854 12.1887 -0.00509177 12.545 0.00101835V0Z" fill="#525252"/>
</svg>
