<svg width="19" height="14" viewBox="0 0 19 14" fill="none" xmlns="http://www.w3.org/2000/svg">
<path d="M5.87205 13.9977C5.24124 13.9977 4.61042 13.9917 3.97887 13.9992C2.9166 14.0121 2.01724 13.6217 1.26815 12.8741C0.571131 12.1785 0.160507 11.3299 0.0333024 10.348C-0.103572 9.29289 0.187286 8.35011 0.79876 7.49776C1.06433 7.12773 1.39907 6.83458 1.77399 6.58513C1.80747 6.56252 1.8402 6.53916 1.87516 6.51805C1.9131 6.49545 1.91979 6.46982 1.90566 6.42536C1.57761 5.38687 1.80375 4.46595 2.53201 3.6852C2.91734 3.27297 3.41277 3.02653 3.97663 2.93836C4.40362 2.87129 4.82094 2.90671 5.22785 3.05291C5.29405 3.07702 5.30968 3.0416 5.3305 2.9994C5.422 2.811 5.52243 2.62862 5.6355 2.45227C6.47832 1.13645 7.67597 0.362483 9.18978 0.0836433C10.0616 -0.0768779 10.9215 -0.00679115 11.7562 0.297672C13.2402 0.838017 14.2936 1.84636 14.9192 3.31291C15.1118 3.76433 15.2242 4.23685 15.28 4.72368C15.2911 4.81864 15.338 4.842 15.4139 4.85632C15.8334 4.9347 16.2277 5.08844 16.6004 5.29568C17.4796 5.78629 18.1253 6.50072 18.5523 7.41637C18.9079 8.17903 19.0634 8.98466 18.9763 9.82494C18.899 10.5725 18.6602 11.2704 18.251 11.9019C17.6366 12.8515 16.7982 13.5034 15.7211 13.8312C15.3886 13.9322 15.0464 13.994 14.699 13.9955C13.4188 14 12.1378 13.997 10.8576 13.9992C10.7735 13.9992 10.7571 13.9729 10.7579 13.893C10.7601 12.5839 10.7594 11.2749 10.7594 9.96587C10.7594 9.87242 10.8072 9.82595 10.9029 9.82645C11.2868 9.82645 11.6699 9.82796 12.0537 9.8272C12.1467 9.8272 12.239 9.81891 12.3223 9.77068C12.5306 9.64935 12.602 9.39312 12.477 9.17834C12.3372 8.93793 12.1609 8.72239 12.0002 8.49631C11.3054 7.51811 10.6084 6.54142 9.9106 5.56472C9.83844 5.46374 9.76554 5.362 9.63685 5.32281C9.45162 5.26554 9.28946 5.30623 9.17267 5.46223C8.9986 5.69435 8.83346 5.93174 8.66459 6.16762C7.96906 7.13753 7.28543 8.11573 6.57725 9.0766C6.50659 9.17231 6.44782 9.27329 6.45228 9.40141C6.45898 9.62749 6.61296 9.81062 6.83613 9.81816C7.20658 9.83022 7.57852 9.82645 7.94898 9.8272C8.22719 9.8272 8.22719 9.82645 8.22719 10.1083C8.22719 11.3766 8.2257 12.645 8.22868 13.9133C8.22868 14.0008 8.18628 14 8.12602 14C7.3747 14 6.62263 14 5.87131 14L5.87205 13.9977Z" fill="black"/>
</svg>
